<?xml version="1.0" standalone="no"?>
<!DOCTYPE svg PUBLIC "-//W3C//DTD SVG 20010904//EN"
 "http://www.w3.org/TR/2001/REC-SVG-20010904/DTD/svg10.dtd">
<svg version="1.0" xmlns="http://www.w3.org/2000/svg"
 width="300.000000pt" height="300.000000pt" viewBox="0 0 300.000000 300.000000"
 preserveAspectRatio="xMidYMid meet">
<metadata>
Created by potrace 1.11, written by Peter Selinger 2001-2013
</metadata>
<g transform="translate(0.000000,300.000000) scale(0.100000,-0.100000)"
fill="#000000" stroke="none">
<path d="M1285 2984 c-166 -24 -360 -88 -487 -160 -33 -19 -62 -34 -65 -34 -3
0 -32 -19 -66 -42 -363 -252 -587 -607 -652 -1037 -19 -122 -12 -370 13 -496
60 -303 199 -562 417 -779 224 -223 505 -366 830 -421 63 -11 333 -14 405 -5
446 57 837 301 1079 673 94 145 173 335 205 492 26 129 28 142 31 300 5 228
-29 409 -112 605 -167 390 -476 684 -876 831 -43 16 -99 34 -125 40 -26 6 -56
13 -67 15 -11 3 -33 7 -50 10 -16 2 -41 7 -55 10 -52 13 -337 11 -425 -2z"/>
</g>
</svg>
